<svg width="420" height="256" viewBox="0 0 420 256" fill="none" xmlns="http://www.w3.org/2000/svg">
<path d="M506 256H-34.6314C-36.8453 231.24 -40.2104 179.819 -35.9597 172.213C-30.6464 162.705 -4.07972 157.951 -0.0947266 153.197C3.09327 149.394 69.8641 132.201 102.851 124.08L228.378 98.5277L279.647 89.261C306.429 83.2945 325.155 79.2537 330 78.5C352.5 75 342 78.5 334 65.2506C326 52.0011 168.604 58 152 34C138.717 14.8 153.965 15.3333 165.5 0.5H207.5C208.833 15.6667 221.9 12.3 239.5 17.5C257.1 22.7 366.053 29.3156 418.33 31.9734C430.285 33.9542 459.907 41.7189 482.754 56.9313C505.602 72.1437 490.503 94.9623 480.098 104.47C465.486 117.147 434.004 145.591 424.972 157.951C413.681 173.401 434.934 198.359 441.576 204.896C446.889 210.125 476.555 219.752 490.724 223.911L506 256Z" fill="#FFE3AB"/>
<path d="M146 206C113.6 191.6 99.1667 147 96 126.5L-28.5 153.5L-45.5 275H146H255L433.5 267L421.5 206L425.5 174.5C345.833 191 178.4 220.4 146 206Z" fill="#F7D99C"/>
<path d="M129.157 228.363C91.513 206.754 80.0996 153.784 79.0985 130L-5 149.876V258.432L422 262V206.958C340.071 223.097 166.801 249.972 129.157 228.363Z" fill="#E9C986"/>
<path d="M251.793 185.378L242.688 169.991C241.317 168.546 235.592 171.918 234.545 171.538C233.499 171.158 230.21 175.651 229.145 175.975C228.292 176.234 228.425 181.005 228.598 183.358C229.265 184.784 230.876 187.786 231.988 188.379C233.377 189.12 236.156 190.602 239.676 190.695C242.492 190.769 244.629 189.886 245.346 189.435L249.644 186.731L251.793 185.378Z" fill="#E7BC85"/>
<path d="M257.499 182.711L248.033 167.666L252.369 163.554C252.128 163.782 251.874 163.611 252.786 161.099C253.697 158.587 255.154 155.878 255.769 154.837L260.104 150.724L263.337 148.344C264.288 147.899 266.548 146.808 267.978 146.001C269.409 145.193 273.064 144.608 274.713 144.417L278.594 144.167C279.99 144.673 283.059 145.835 284.171 146.428C285.56 147.169 286.949 147.91 290.34 152.931C293.052 156.947 289.104 164.17 286.791 167.279C286.176 168.32 283.795 171.357 279.185 175.181C274.576 179.004 262.807 181.794 257.499 182.711Z" fill="#E7BC85"/>
<path d="M393.172 137.162L385.695 132.497C384.768 132.176 383.028 134.951 382.484 135.022C381.94 135.093 381.521 137.805 381.129 138.189C380.815 138.496 381.956 140.553 382.565 141.543C383.181 142.016 384.567 142.963 385.188 142.97C385.964 142.979 387.517 142.997 389.078 142.238C390.326 141.631 391.061 140.76 391.272 140.4L392.538 138.241L393.172 137.162Z" fill="#E7BC85"/>
<path d="M395.062 134.699L387.506 130.267L388.469 127.483C388.416 127.638 388.266 127.62 388.094 126.314C387.923 125.009 387.945 123.493 387.978 122.898L388.941 120.114L389.815 118.339C390.13 117.929 390.871 116.938 391.313 116.26C391.756 115.582 393.222 114.497 393.9 114.039L395.541 113.048C396.267 112.953 397.873 112.764 398.494 112.771C399.27 112.78 400.046 112.789 402.669 114.216C404.767 115.357 404.68 119.413 404.374 121.299C404.341 121.893 403.989 123.763 402.84 126.482C401.692 129.201 397.177 133.093 395.062 134.699Z" fill="#E7BC85"/>
<path d="M205.572 26.8234L202.022 27.8111C201.661 28.0065 202.025 29.3267 201.893 29.5147C201.761 29.7027 202.479 30.598 202.487 30.8275C202.493 31.011 203.449 31.2403 203.927 31.332C204.247 31.2757 204.931 31.1157 205.108 30.9263C205.33 30.6894 205.774 30.2157 205.981 29.5201C206.147 28.9635 206.086 28.4909 206.034 28.3242L205.726 27.3237L205.572 26.8234Z" fill="#E7BC85"/>
<path d="M205.347 25.5447L201.845 26.6227L201.259 25.5393C201.292 25.5995 201.244 25.6409 200.793 25.3248C200.342 25.0087 199.881 24.5735 199.706 24.3954L199.12 23.3121L198.82 22.541C198.782 22.3279 198.686 21.8197 198.602 21.4917C198.518 21.1637 198.597 20.4048 198.648 20.0664L198.806 19.2804C198.981 19.0298 199.377 18.4811 199.555 18.2916C199.777 18.0548 199.999 17.818 201.18 17.4123C202.124 17.0877 203.351 18.2605 203.845 18.8875C204.02 19.0656 204.497 19.7024 205.011 20.8248C205.525 21.9472 205.449 24.4391 205.347 25.5447Z" fill="#E7BC85"/>
<path d="M284.34 31.2746L283.874 34.8956C283.925 35.2992 285.433 35.4563 285.571 35.6469C285.709 35.8375 286.929 35.5125 287.168 35.5909C287.359 35.6537 287.993 34.8623 288.287 34.4587C288.362 34.1448 288.483 33.4588 288.362 33.2256C288.211 32.9341 287.91 32.3511 287.281 31.9026C286.778 31.5438 286.267 31.4242 286.074 31.4093L284.918 31.3195L284.34 31.2746Z" fill="#E8C18E"/>
<path d="M281.594 31.0054L281.242 34.6152L279.885 34.7497C279.96 34.7422 279.983 34.8013 279.47 35.0972C278.957 35.3931 278.317 35.6539 278.062 35.7473L276.704 35.8817L275.786 35.8704C275.552 35.8256 274.989 35.7246 274.617 35.6798C274.245 35.6349 273.499 35.2798 273.172 35.1079L272.43 34.6706C272.246 34.4165 271.847 33.85 271.726 33.6168C271.576 33.3253 271.425 33.0338 271.5 31.8006C271.561 30.8141 273.277 30.1266 274.128 29.9062C274.383 29.8128 275.236 29.6126 276.604 29.5589C277.972 29.5052 280.501 30.5009 281.594 31.0054Z" fill="#E8C18E"/>
<path d="M135.79 152.122L142.653 168.43C142.994 170.372 136.939 172.935 136.624 173.991C136.309 175.047 130.799 175.013 129.914 175.668C129.205 176.193 125.491 173.275 123.723 171.751C122.982 170.38 121.546 167.329 121.73 166.096C121.96 164.555 122.42 161.472 124.421 158.62C126.022 156.337 127.984 155.16 128.764 154.856L133.448 153.034L135.79 152.122Z" fill="#E7BC85"/>
<path d="M141.274 149.159L147.652 165.552L153.477 164.53C153.153 164.587 153.14 164.89 155.674 165.646C158.208 166.402 161.22 166.841 162.41 166.966L168.234 165.944L172.032 164.778C172.946 164.284 175.146 163.131 176.631 162.47C178.116 161.809 180.736 159.248 181.86 158.051L184.346 155.113C184.766 153.705 185.653 150.581 185.837 149.348C186.067 147.806 186.297 146.265 184.304 140.61C182.71 136.087 174.642 134.967 170.807 134.973C169.617 134.848 165.8 134.95 160.043 136.361C154.286 137.771 145.132 145.48 141.274 149.159Z" fill="#E7BC85"/>
<path d="M356.952 87.2711L363.208 93.3459C363.737 94.161 361.484 96.4907 361.545 97.0304C361.605 97.5702 359.099 98.6166 358.824 99.0847C358.604 99.4592 356.357 98.8516 355.261 98.5009C354.66 98.0218 353.421 96.9147 353.267 96.3199C353.074 95.5764 352.689 94.0894 353.047 92.4096C353.333 91.0658 353.996 90.1534 354.291 89.8651L356.065 88.1358L356.952 87.2711Z" fill="#E7BC85"/>
<path d="M358.868 84.8699L364.921 91.0769L367.366 89.4907C367.23 89.5788 367.283 89.7187 368.578 89.5734C369.873 89.428 371.324 89.0465 371.888 88.8739L374.333 87.2878L375.831 86.0266C376.151 85.6264 376.926 84.6794 377.473 84.0934C378.019 83.5074 378.714 81.8409 378.993 81.0808L379.554 79.2689C379.474 78.5492 379.274 76.9612 379.119 76.3664C378.927 75.6229 378.734 74.8794 376.74 72.6984C375.145 70.9536 371.269 72.0008 369.531 72.7424C368.967 72.915 367.255 73.6974 364.915 75.4466C362.576 77.1958 359.909 82.4576 358.868 84.8699Z" fill="#E7BC85"/>
<path d="M183.415 28.2629L187.055 28.0498C187.456 28.117 187.538 29.4698 187.722 29.6036C187.905 29.7374 187.52 30.8058 187.587 31.0229C187.64 31.1967 186.818 31.7179 186.4 31.9568C186.083 32.0066 185.391 32.076 185.164 31.9555C184.88 31.8049 184.313 31.5037 183.896 30.9187C183.563 30.4507 183.468 29.9886 183.463 29.816L183.431 28.7806L183.415 28.2629Z" fill="#E7BC85"/>
<path d="M183.216 26.9935L186.84 26.8805L187.041 25.6783C187.03 25.7451 187.088 25.7686 187.409 25.328C187.73 24.8875 188.023 24.3323 188.129 24.1097L188.33 22.9076L188.365 22.0893C188.331 21.8777 188.258 21.3711 188.232 21.037C188.206 20.703 187.888 20.018 187.733 19.7172L187.333 19.0321C187.088 18.8537 186.542 18.4667 186.315 18.3463C186.031 18.1956 185.747 18.045 184.511 18.0437C183.523 18.0426 182.751 19.5336 182.488 20.2793C182.382 20.5018 182.14 21.2508 182.018 22.4665C181.897 23.6821 182.766 25.991 183.216 26.9935Z" fill="#E7BC85"/>
<path d="M296.138 50.0925L297.437 46.6768C297.673 46.3346 299.097 46.7624 299.311 46.6439C299.525 46.5255 300.462 47.2758 300.713 47.2956C300.914 47.3114 301.107 48.2587 301.178 48.7304C301.097 49.0397 300.88 49.6991 300.661 49.8623C300.388 50.0664 299.842 50.4744 299.067 50.6389C298.447 50.7705 297.933 50.6849 297.754 50.6257L296.676 50.2702L296.138 50.0925Z" fill="#E8C18E"/>
<path d="M294.75 49.8029L296.145 46.4398L294.994 45.8079C295.058 45.843 295.106 45.7987 294.787 45.3406C294.469 44.8825 294.02 44.4082 293.835 44.2283L292.684 43.5964L291.858 43.2607C291.626 43.2125 291.075 43.0909 290.721 42.9909C290.367 42.8908 289.531 42.9272 289.157 42.9579L288.286 43.0697C288 43.2277 287.375 43.5844 287.157 43.7476C286.884 43.9516 286.611 44.1556 286.094 45.2876C285.681 46.1932 286.891 47.4552 287.548 47.9729C287.732 48.1528 288.401 48.6535 289.599 49.2169C290.798 49.7803 293.533 49.8423 294.75 49.8029Z" fill="#E8C18E"/>
</svg>
