<svg width="420" height="707" viewBox="0 0 420 707" fill="none" xmlns="http://www.w3.org/2000/svg">
<rect x="89.4287" y="293.374" width="9.36956" height="9.36956" transform="rotate(25.6407 89.4287 293.374)" fill="#5C92A3"/>
<rect x="379.054" y="201" width="9.36956" height="9.36956" transform="rotate(25.6407 379.054 201)" fill="#5C92A3"/>
<rect x="335.054" y="300" width="9.36956" height="9.36956" transform="rotate(25.6407 335.054 300)" fill="#5C92A3"/>
<rect x="318.543" y="99.5136" width="6.71669" height="6.71669" transform="rotate(-11.8048 318.543 99.5136)" fill="#5C92A3"/>
<rect x="61.9944" y="151" width="9.36956" height="9.36956" transform="rotate(73.7312 61.9944 151)" fill="#5C92A3"/>
<circle cx="57.5" cy="231.5" r="4" stroke="white"/>
<circle cx="356.5" cy="121.5" r="4" stroke="white"/>
<circle cx="57.5" cy="121.5" r="4" stroke="white"/>
<circle cx="214.5" cy="61.5" r="4" stroke="white"/>
<circle cx="356.5" cy="231.5" r="4" stroke="white"/>
<circle cx="63.5" cy="487.5" r="4" stroke="white"/>
<circle cx="334.5" cy="523.5" r="4" stroke="white"/>
<rect x="173.724" y="632.679" width="8.87445" height="8.87445" transform="rotate(77.1977 173.724 632.679)" fill="#5C92A3"/>
<rect x="74.3705" y="658.337" width="8.87445" height="8.87445" transform="rotate(77.1977 74.3705 658.337)" fill="#5C92A3"/>
<rect x="213.376" y="528.026" width="6.36177" height="6.36177" transform="rotate(39.7523 213.376 528.026)" fill="#5C92A3"/>
<rect x="24.1048" y="368.027" width="8.87445" height="8.87445" transform="rotate(125.288 24.1048 368.027)" fill="#5C92A3"/>
<rect x="80.3705" y="551.127" width="8.87445" height="8.87445" transform="rotate(125.288 80.3705 551.127)" fill="#5C92A3"/>
<rect x="87.3704" y="433.127" width="8.87445" height="8.87445" transform="rotate(125.288 87.3704 433.127)" fill="#5C92A3"/>
<rect x="35.3705" y="472.127" width="8.87445" height="8.87445" transform="rotate(125.288 35.3705 472.127)" fill="#5C92A3"/>
<rect x="397.371" y="478.127" width="8.87445" height="8.87445" transform="rotate(125.288 397.371 478.127)" fill="#5C92A3"/>
<rect x="325.371" y="476.127" width="8.87445" height="8.87445" transform="rotate(125.288 325.371 476.127)" fill="#5C92A3"/>
<rect x="387.371" y="539.127" width="8.87445" height="8.87445" transform="rotate(125.288 387.371 539.127)" fill="#5C92A3"/>
<rect x="345.371" y="600.127" width="8.87445" height="8.87445" transform="rotate(125.288 345.371 600.127)" fill="#5C92A3"/>
<rect x="40.3705" y="262.127" width="8.87445" height="8.87445" transform="rotate(125.288 40.3705 262.127)" fill="#5C92A3"/>
<rect x="396.371" y="274.127" width="8.87445" height="8.87445" transform="rotate(125.288 396.371 274.127)" fill="#5C92A3"/>
<rect x="216.371" y="131.127" width="8.87445" height="8.87445" transform="rotate(125.288 216.371 131.127)" fill="#5C92A3"/>
<rect x="116.371" y="61.1267" width="8.87445" height="8.87445" transform="rotate(125.288 116.371 61.1267)" fill="#5C92A3"/>
<circle cx="219.418" cy="569.131" r="3.76221" transform="rotate(51.557 219.418 569.131)" stroke="white"/>
<circle cx="43.3424" cy="347.321" r="3.76221" transform="rotate(51.557 43.3424 347.321)" stroke="white"/>
<circle cx="29.9882" cy="578.988" r="3.76221" transform="rotate(51.557 29.9882 578.988)" stroke="white"/>
<circle cx="137.816" cy="633.908" r="3.76221" transform="rotate(51.557 137.816 633.908)" stroke="white"/>
<rect x="320.052" y="370.914" width="8.87445" height="8.87445" transform="rotate(146.424 320.052 370.914)" fill="#5C92A3"/>
<rect x="254.825" y="651.365" width="8.87445" height="8.87445" transform="rotate(146.424 254.825 651.365)" fill="#5C92A3"/>
<rect x="195.596" y="567.572" width="8.87445" height="8.87445" transform="rotate(146.424 195.596 567.572)" fill="#5C92A3"/>
<rect x="366.739" y="651.32" width="6.36177" height="6.36177" transform="rotate(108.978 366.739 651.32)" fill="#5C92A3"/>
<circle cx="385.877" cy="374.926" r="3.76221" transform="rotate(120.783 385.877 374.926)" stroke="white"/>
<circle cx="330.449" cy="671.549" r="3.76221" transform="rotate(120.783 330.449 671.549)" stroke="white"/>
<circle cx="240.94" cy="618.227" r="3.76221" transform="rotate(120.783 240.94 618.227)" stroke="white"/>
<circle cx="137.5" cy="146.5" r="4" stroke="white"/>
<circle cx="281.5" cy="146.5" r="4" stroke="white"/>
<circle cx="63.5" cy="40.5" r="4" stroke="white"/>
<circle cx="281.5" cy="66.5" r="4" stroke="white"/>
<circle cx="137.5" cy="93.5" r="4" stroke="white"/>
<circle cx="356.5" cy="52.5" r="4" stroke="white"/>
<circle cx="164.5" cy="31.5" r="4" stroke="white"/>
<circle cx="351.5" cy="449.5" r="4" stroke="white"/>
<circle cx="290.5" cy="590.5" r="4" stroke="white"/>
<circle cx="114.5" cy="541.5" r="4" stroke="white"/>
</svg>
